<svg width="268" height="184" viewBox="0 0 268 184" fill="none" xmlns="http://www.w3.org/2000/svg">
<g filter="url(#filter0_d_1_111)">
<ellipse opacity="0.3" cx="8.5" cy="4" rx="4.5" ry="4" fill="#D9D9D9"/>
<ellipse opacity="0.3" cx="44.5" cy="4" rx="4.5" ry="4" fill="#D9D9D9"/>
<circle opacity="0.3" cx="80" cy="4" r="4" fill="#D9D9D9"/>
<circle opacity="0.3" cx="116" cy="4" r="4" fill="#D9D9D9"/>
<circle opacity="0.3" cx="152" cy="4" r="4" fill="#D9D9D9"/>
<circle opacity="0.3" cx="188" cy="4" r="4" fill="#D9D9D9"/>
<circle opacity="0.3" cx="224" cy="4" r="4" fill="#D9D9D9"/>
<circle opacity="0.3" cx="260" cy="4" r="4" fill="#D9D9D9"/>
<ellipse opacity="0.3" cx="8.5" cy="28" rx="4.5" ry="4" fill="#D9D9D9"/>
<ellipse opacity="0.3" cx="44.5" cy="28" rx="4.5" ry="4" fill="#D9D9D9"/>
<circle opacity="0.3" cx="80" cy="28" r="4" fill="#D9D9D9"/>
<circle opacity="0.3" cx="116" cy="28" r="4" fill="#D9D9D9"/>
<circle opacity="0.3" cx="152" cy="28" r="4" fill="#D9D9D9"/>
<circle opacity="0.3" cx="188" cy="28" r="4" fill="#D9D9D9"/>
<circle opacity="0.3" cx="224" cy="28" r="4" fill="#D9D9D9"/>
<circle opacity="0.3" cx="260" cy="28" r="4" fill="#D9D9D9"/>
<ellipse opacity="0.3" cx="8.5" cy="52" rx="4.5" ry="4" fill="#D9D9D9"/>
<ellipse opacity="0.3" cx="44.5" cy="52" rx="4.5" ry="4" fill="#D9D9D9"/>
<circle opacity="0.3" cx="80" cy="52" r="4" fill="#D9D9D9"/>
<circle opacity="0.3" cx="116" cy="52" r="4" fill="#D9D9D9"/>
<circle opacity="0.3" cx="152" cy="52" r="4" fill="#D9D9D9"/>
<circle opacity="0.3" cx="188" cy="52" r="4" fill="#D9D9D9"/>
<circle opacity="0.3" cx="224" cy="52" r="4" fill="#D9D9D9"/>
<circle opacity="0.3" cx="260" cy="52" r="4" fill="#D9D9D9"/>
<ellipse opacity="0.3" cx="8.5" cy="76" rx="4.5" ry="4" fill="#D9D9D9"/>
<ellipse opacity="0.3" cx="44.5" cy="76" rx="4.5" ry="4" fill="#D9D9D9"/>
<circle opacity="0.3" cx="80" cy="76" r="4" fill="#D9D9D9"/>
<circle opacity="0.3" cx="116" cy="76" r="4" fill="#D9D9D9"/>
<circle opacity="0.3" cx="152" cy="76" r="4" fill="#D9D9D9"/>
<circle opacity="0.3" cx="188" cy="76" r="4" fill="#D9D9D9"/>
<circle opacity="0.3" cx="224" cy="76" r="4" fill="#D9D9D9"/>
<circle opacity="0.3" cx="260" cy="76" r="4" fill="#D9D9D9"/>
<ellipse opacity="0.3" cx="8.5" cy="100" rx="4.5" ry="4" fill="#D9D9D9"/>
<ellipse opacity="0.3" cx="44.5" cy="100" rx="4.5" ry="4" fill="#D9D9D9"/>
<circle opacity="0.3" cx="80" cy="100" r="4" fill="#D9D9D9"/>
<circle opacity="0.3" cx="116" cy="100" r="4" fill="#D9D9D9"/>
<circle opacity="0.3" cx="152" cy="100" r="4" fill="#D9D9D9"/>
<circle opacity="0.3" cx="188" cy="100" r="4" fill="#D9D9D9"/>
<circle opacity="0.3" cx="224" cy="100" r="4" fill="#D9D9D9"/>
<circle opacity="0.3" cx="260" cy="100" r="4" fill="#D9D9D9"/>
<ellipse opacity="0.3" cx="8.5" cy="124" rx="4.5" ry="4" fill="#D9D9D9"/>
<ellipse opacity="0.3" cx="44.5" cy="124" rx="4.5" ry="4" fill="#D9D9D9"/>
<circle opacity="0.3" cx="80" cy="124" r="4" fill="#D9D9D9"/>
<circle opacity="0.3" cx="116" cy="124" r="4" fill="#D9D9D9"/>
<circle opacity="0.3" cx="152" cy="124" r="4" fill="#D9D9D9"/>
<circle opacity="0.3" cx="188" cy="124" r="4" fill="#D9D9D9"/>
<circle opacity="0.3" cx="224" cy="124" r="4" fill="#D9D9D9"/>
<circle opacity="0.3" cx="260" cy="124" r="4" fill="#D9D9D9"/>
<ellipse opacity="0.3" cx="8.5" cy="148" rx="4.5" ry="4" fill="#D9D9D9"/>
<ellipse opacity="0.3" cx="44.5" cy="148" rx="4.5" ry="4" fill="#D9D9D9"/>
<circle opacity="0.3" cx="80" cy="148" r="4" fill="#D9D9D9"/>
<circle opacity="0.3" cx="116" cy="148" r="4" fill="#D9D9D9"/>
<circle opacity="0.3" cx="152" cy="148" r="4" fill="#D9D9D9"/>
<circle opacity="0.3" cx="188" cy="148" r="4" fill="#D9D9D9"/>
<circle opacity="0.3" cx="224" cy="148" r="4" fill="#D9D9D9"/>
<circle opacity="0.3" cx="260" cy="148" r="4" fill="#D9D9D9"/>
<ellipse opacity="0.3" cx="8.5" cy="172" rx="4.5" ry="4" fill="#D9D9D9"/>
<ellipse opacity="0.3" cx="44.5" cy="172" rx="4.5" ry="4" fill="#D9D9D9"/>
<circle opacity="0.3" cx="80" cy="172" r="4" fill="#D9D9D9"/>
<circle opacity="0.3" cx="116" cy="172" r="4" fill="#D9D9D9"/>
<circle opacity="0.3" cx="152" cy="172" r="4" fill="#D9D9D9"/>
<circle opacity="0.3" cx="188" cy="172" r="4" fill="#D9D9D9"/>
<circle opacity="0.3" cx="224" cy="172" r="4" fill="#D9D9D9"/>
<circle opacity="0.3" cx="260" cy="172" r="4" fill="#D9D9D9"/>
</g>
<defs>
<filter id="filter0_d_1_111" x="0" y="0" width="268" height="184" filterUnits="userSpaceOnUse" color-interpolation-filters="sRGB">
<feFlood flood-opacity="0" result="BackgroundImageFix"/>
<feColorMatrix in="SourceAlpha" type="matrix" values="0 0 0 0 0 0 0 0 0 0 0 0 0 0 0 0 0 0 127 0" result="hardAlpha"/>
<feOffset dy="4"/>
<feGaussianBlur stdDeviation="2"/>
<feComposite in2="hardAlpha" operator="out"/>
<feColorMatrix type="matrix" values="0 0 0 0 0 0 0 0 0 0 0 0 0 0 0 0 0 0 0.25 0"/>
<feBlend mode="normal" in2="BackgroundImageFix" result="effect1_dropShadow_1_111"/>
<feBlend mode="normal" in="SourceGraphic" in2="effect1_dropShadow_1_111" result="shape"/>
</filter>
</defs>
</svg>
